# xmcd
#
# Track frame offsets:
#	150
#	14618
#	28137
#	41368
#	53592
#	66875
#	80789
#	94028
#	107537
#	121895
#	135148
#	147943
#	163330
#	175177
#	188240
#	198295
#	214646
#	227655
#	241883
#	253147
#	271056
#	284575
#	300623
#
# Disc length: 4183 seconds
# Revision: 2
# Processed by: cddbd v1.5.2PL0 Copyright (c) Steve Scherf et al.
# Submitted via: dBpowerAMP V12.0
#
DISCID=41105517
DTITLE=John Lee Hooker - Eight Classic Albums - Disc 3 of 4
DYEAR=2014
DGENRE=Blues
TTITLE0=Wandering Blues
TTITLE1=I'm Gonna Kill That Women
TTITLE2=Heart Trouble Blues
TTITLE3=Don't You Remember Me
TTITLE4=Slim's Stomp
TTITLE5=The Numbers
TTITLE6=Nightmare Blues
TTITLE7=Moanin' Blues
TTITLE8=Don't Go Baby
TTITLE9=Late Last Night
TTITLE10=Devil's Jump
TTITLE11=Tupelo
TTITLE12=I'm Mad Again
TTITLE13=I'm Going Upstairs
TTITLE14=Want Ad Blues
TTITLE15=Five Long Years
TTITLE16=I Like to See You Walk
TTITLE17=The Hobo
TTITLE18=Hard Headed Women
TTITLE19=Wednesday Evening Blues
TTITLE20=Take Me as I Am
TTITLE21=My First Wife Left Me
TTITLE22=You're Looking Good Tonight
EXTD=
EXTT0=
EXTT1=
EXTT2=
EXTT3=
EXTT4=
EXTT5=
EXTT6=
EXTT7=
EXTT8=
EXTT9=
EXTT10=
EXTT11=
EXTT12=
EXTT13=
EXTT14=
EXTT15=
EXTT16=
EXTT17=
EXTT18=
EXTT19=
EXTT20=
EXTT21=
EXTT22=
PLAYORDER=
